<svg xmlns="http://www.w3.org/2000/svg" width="1672" height="941" viewBox="0 0 1672 941" fill="none">

    <defs>
      <linearGradient id="topGrad" x1="95" y1="100" x2="405" y2="255" gradientUnits="userSpaceOnUse">
        <stop offset="0%" stop-color="#27E8E5"/>
        <stop offset="50%" stop-color="#1CC8F2"/>
        <stop offset="100%" stop-color="#1595FF"/>
      </linearGradient>
      <linearGradient id="blueGrad" x1="110" y1="205" x2="390" y2="430" gradientUnits="userSpaceOnUse">
        <stop offset="0%" stop-color="#2A91FF"/>
        <stop offset="50%" stop-color="#176BFF"/>
        <stop offset="100%" stop-color="#0E4FFF"/>
      </linearGradient>
      
    <pattern id="bgStripes" width="24" height="24" patternUnits="userSpaceOnUse">
      <rect width="24" height="24" fill="#00153C"/>
      <rect x="0" y="0" width="8" height="24" fill="#001C48" opacity="0.28"/>
      <rect x="12" y="0" width="4" height="24" fill="#001B43" opacity="0.18"/>
    </pattern>
    
    </defs>
    
<rect width="1672" height="941" fill="url(#bgStripes)"/>

<g id="venddup-symbol" fill="none" stroke-linecap="round" stroke-linejoin="round">
  <path d="M95 100 L250 252 L405 100" stroke="url(#topGrad)" stroke-width="74"/>
  <path d="M112 214 L250 341 L388 214" stroke="url(#blueGrad)" stroke-width="58"/>
  <path d="M112 302 L250 430 L388 302" stroke="url(#blueGrad)" stroke-width="58"/>
</g>

<g transform="translate(150,220) scale(1.08)">
  <use href="#venddup-symbol"/>
</g>
<path d="M 0.00 -0.73 L 0.19 -0.73 L 0.39 -0.19 L 0.58 -0.73 L 0.77 -0.73 L 0.50 -0.00 L 0.27 -0.00 L 0.00 -0.73 Z M 1.35 -0.27 L 1.35 -0.23 L 0.94 -0.23 Q 0.95 -0.16 0.98 -0.13 Q 1.02 -0.10 1.09 -0.10 Q 1.15 -0.10 1.20 -0.12 Q 1.26 -0.13 1.32 -0.17 L 1.32 -0.03 Q 1.26 -0.01 1.20 0.00 Q 1.14 0.01 1.07 0.01 Q 0.93 0.01 0.84 -0.06 Q 0.76 -0.14 0.76 -0.27 Q 0.76 -0.41 0.84 -0.48 Q 0.92 -0.56 1.07 -0.56 Q 1.19 -0.56 1.27 -0.48 Q 1.35 -0.40 1.35 -0.27 Z M 1.17 -0.33 Q 1.17 -0.38 1.14 -0.41 Q 1.11 -0.44 1.06 -0.44 Q 1.01 -0.44 0.98 -0.42 Q 0.95 -0.39 0.94 -0.33 L 1.17 -0.33 Z M 2.03 -0.33 L 2.03 -0.00 L 1.86 -0.00 L 1.86 -0.05 L 1.86 -0.25 Q 1.86 -0.33 1.85 -0.35 Q 1.85 -0.38 1.84 -0.39 Q 1.83 -0.41 1.81 -0.42 Q 1.80 -0.43 1.77 -0.43 Q 1.72 -0.43 1.69 -0.39 Q 1.66 -0.34 1.66 -0.27 L 1.66 -0.00 L 1.48 -0.00 L 1.48 -0.55 L 1.66 -0.55 L 1.66 -0.47 Q 1.70 -0.51 1.74 -0.54 Q 1.78 -0.56 1.84 -0.56 Q 1.93 -0.56 1.98 -0.50 Q 2.03 -0.44 2.03 -0.33 Z M 2.57 -0.47 L 2.57 -0.76 L 2.74 -0.76 L 2.74 -0.00 L 2.57 -0.00 L 2.57 -0.08 Q 2.53 -0.03 2.49 -0.01 Q 2.44 0.01 2.39 0.01 Q 2.28 0.01 2.22 -0.07 Q 2.15 -0.15 2.15 -0.27 Q 2.15 -0.40 2.22 -0.48 Q 2.28 -0.56 2.39 -0.56 Q 2.44 -0.56 2.49 -0.54 Q 2.53 -0.51 2.57 -0.47 Z M 2.45 -0.11 Q 2.51 -0.11 2.54 -0.15 Q 2.57 -0.19 2.57 -0.27 Q 2.57 -0.35 2.54 -0.39 Q 2.51 -0.43 2.45 -0.43 Q 2.39 -0.43 2.36 -0.39 Q 2.34 -0.35 2.34 -0.27 Q 2.34 -0.19 2.36 -0.15 Q 2.39 -0.11 2.45 -0.11 Z M 3.28 -0.47 L 3.28 -0.76 L 3.46 -0.76 L 3.46 -0.00 L 3.28 -0.00 L 3.28 -0.08 Q 3.24 -0.03 3.20 -0.01 Q 3.16 0.01 3.10 0.01 Q 3.00 0.01 2.93 -0.07 Q 2.87 -0.15 2.87 -0.27 Q 2.87 -0.40 2.93 -0.48 Q 3.00 -0.56 3.10 -0.56 Q 3.16 -0.56 3.20 -0.54 Q 3.24 -0.51 3.28 -0.47 Z M 3.17 -0.11 Q 3.22 -0.11 3.25 -0.15 Q 3.28 -0.19 3.28 -0.27 Q 3.28 -0.35 3.25 -0.39 Q 3.22 -0.43 3.17 -0.43 Q 3.11 -0.43 3.08 -0.39 Q 3.05 -0.35 3.05 -0.27 Q 3.05 -0.19 3.08 -0.15 Q 3.11 -0.11 3.17 -0.11 Z M 3.62 -0.21 L 3.62 -0.55 L 3.79 -0.55 L 3.79 -0.49 Q 3.79 -0.45 3.79 -0.38 Q 3.79 -0.31 3.79 -0.29 Q 3.79 -0.23 3.80 -0.20 Q 3.80 -0.17 3.81 -0.15 Q 3.82 -0.14 3.84 -0.13 Q 3.85 -0.12 3.88 -0.12 Q 3.93 -0.12 3.96 -0.16 Q 3.99 -0.20 3.99 -0.28 L 3.99 -0.55 L 4.17 -0.55 L 4.17 -0.00 L 3.99 -0.00 L 3.99 -0.08 Q 3.95 -0.03 3.91 -0.01 Q 3.87 0.01 3.81 0.01 Q 3.72 0.01 3.67 -0.04 Q 3.62 -0.10 3.62 -0.21 Z M 4.51 -0.08 L 4.51 0.21 L 4.34 0.21 L 4.34 -0.55 L 4.51 -0.55 L 4.51 -0.47 Q 4.55 -0.51 4.59 -0.54 Q 4.64 -0.56 4.69 -0.56 Q 4.79 -0.56 4.86 -0.48 Q 4.92 -0.40 4.92 -0.27 Q 4.92 -0.15 4.86 -0.07 Q 4.79 0.01 4.69 0.01 Q 4.64 0.01 4.59 -0.01 Q 4.55 -0.03 4.51 -0.08 Z M 4.63 -0.43 Q 4.57 -0.43 4.54 -0.39 Q 4.51 -0.35 4.51 -0.27 Q 4.51 -0.20 4.54 -0.15 Q 4.57 -0.11 4.63 -0.11 Q 4.68 -0.11 4.71 -0.15 Q 4.74 -0.19 4.74 -0.27 Q 4.74 -0.35 4.71 -0.39 Q 4.68 -0.43 4.63 -0.43 Z" fill="#FFFFFF" transform="translate(609.22,531.69) scale(160.15499)"/>
</svg>